<?xml version="1.0" encoding="utf-8"?>
<!-- Generator: Adobe Illustrator 24.1.1, SVG Export Plug-In . SVG Version: 6.00 Build 0)  -->
<svg version="1.1" id="Layer_1" xmlns="http://www.w3.org/2000/svg" xmlns:xlink="http://www.w3.org/1999/xlink" x="0px" y="0px"
	 viewBox="0 0 16 16" style="enable-background:new 0 0 16 16;" xml:space="preserve">
<style type="text/css">
	.st0{display:none;}
	.st1{display:none;fill:#FFFFFF;}
	.st2{fill:url(#SVGID_1_);}
</style>
<path class="st0" d="M14.9,16H1.1C0.5,16,0,15.5,0,14.9V1.1C0,0.5,0.5,0,1.1,0h13.8C15.5,0,16,0.5,16,1.1v13.8
	C16,15.5,15.5,16,14.9,16z"/>
<path class="st1" d="M13.2,5.2c-1.3-0.9-3.3-1-4.6,0.2C7.8,6.1,7,6.9,6.3,7.6C6.1,7.9,6,7.9,5.8,7.6C5.7,7.5,5.5,7.3,5.4,7.2
	c-0.3-0.3-0.7-0.3-1,0c-0.3,0.3-0.3,0.7,0,1C4.6,8.4,4.8,8.6,5,8.8C5.2,9,5.3,9.1,5.5,9.3c0.3,0.3,0.7,0.3,1.1,0
	c0.6-0.6,1.2-1.1,1.7-1.7c0.4-0.5,0.9-0.9,1.4-1.3c0.2-0.2,0.5-0.3,0.8-0.4c1.1-0.2,2.3,0.5,2.6,1.7c0.3,1.2-0.5,2.3-1.6,2.5
	c-0.5,0.1-1,0.1-1.6-0.2c0.4-0.4,0.8-0.8,1.2-1.2c0.2-0.2,0.4-0.4,0.5-0.6c0.1-0.3-0.1-0.6-0.3-0.8c-0.3-0.2-0.6-0.1-0.8,0.1
	C9.6,8.2,8.8,9,8,9.9c-0.4,0.4-0.9,0.8-1.5,1c-1.3,0.3-2.4-0.1-3.2-1.2c0-0.1-0.1-0.2-0.1-0.3C2.5,8.1,2.9,6.2,4.4,5.5
	C5.2,5,6,5,6.9,5.3c0.4,0.2,0.8,0,1-0.5C8,4.6,7.8,4.2,7.5,4.1C6.7,3.8,5.9,3.6,5.1,3.8C2.8,4.2,1.3,6.1,1.5,8.4
	c0.1,0.7,0.3,1.3,0.7,1.9c0.1,0.1,0.1,0.2,0.2,0.3c1.8,2.3,4.9,2,6.4,0.5c0.1-0.2,0.2-0.1,0.4,0c1.1,0.6,2.2,0.7,3.4,0.1
	C15.1,9.9,15.1,6.6,13.2,5.2z"/>
<linearGradient id="SVGID_1_" gradientUnits="userSpaceOnUse" x1="1.4676" y1="8" x2="14.5324" y2="8">
	<stop  offset="0" style="stop-color:#3DC5F3"/>
	<stop  offset="0.5205" style="stop-color:#3F5EAB"/>
	<stop  offset="0.9015" style="stop-color:#9756A2"/>
</linearGradient>
<path class="st2" d="M13.2,5.2c-1.3-0.9-3.3-1-4.6,0.2C7.8,6.1,7,6.9,6.3,7.6C6.1,7.9,6,7.9,5.8,7.6C5.7,7.5,5.5,7.3,5.4,7.2
	c-0.3-0.3-0.7-0.3-1,0c-0.3,0.3-0.3,0.7,0,1C4.6,8.4,4.8,8.6,5,8.8C5.2,9,5.3,9.1,5.5,9.3c0.3,0.3,0.7,0.3,1.1,0
	c0.6-0.6,1.2-1.1,1.7-1.7c0.4-0.5,0.9-0.9,1.4-1.3c0.2-0.2,0.5-0.3,0.8-0.4c1.1-0.2,2.3,0.5,2.6,1.7c0.3,1.2-0.5,2.3-1.6,2.5
	c-0.5,0.1-1,0.1-1.6-0.2c0.4-0.4,0.8-0.8,1.2-1.2c0.2-0.2,0.4-0.4,0.5-0.6c0.1-0.3-0.1-0.6-0.3-0.8c-0.3-0.2-0.6-0.1-0.8,0.1
	C9.6,8.2,8.8,9,8,9.9c-0.4,0.4-0.9,0.8-1.5,1c-1.3,0.3-2.4-0.1-3.2-1.2c0-0.1-0.1-0.2-0.1-0.3C2.5,8.1,2.9,6.2,4.4,5.5
	C5.2,5,6,5,6.9,5.3c0.4,0.2,0.8,0,1-0.5C8,4.6,7.8,4.2,7.5,4.1C6.7,3.8,5.9,3.6,5.1,3.8C2.8,4.2,1.3,6.1,1.5,8.4
	c0.1,0.7,0.3,1.3,0.7,1.9c0.1,0.1,0.1,0.2,0.2,0.3c1.8,2.3,4.9,2,6.4,0.5c0.1-0.2,0.2-0.1,0.4,0c1.1,0.6,2.2,0.7,3.4,0.1
	C15.1,9.9,15.1,6.6,13.2,5.2z"/>
</svg>
