<svg width="14" height="9" viewBox="0 0 14 9" fill="none" xmlns="http://www.w3.org/2000/svg">
<path d="M11.7178 1.48051C10.4178 0.580506 8.41783 0.480506 7.11784 1.68051C6.31784 2.38051 5.51783 3.18051 4.81783 3.88051C4.61783 4.18051 4.51783 4.18051 4.31783 3.88051C4.21783 3.78051 4.01783 3.58051 3.91783 3.48051C3.61783 3.18051 3.21783 3.18051 2.91783 3.48051C2.61783 3.78051 2.61783 4.18051 2.91783 4.48051C3.11783 4.68051 3.31783 4.88051 3.51783 5.08051C3.71783 5.28051 3.81783 5.38051 4.01783 5.58051C4.31783 5.88051 4.71783 5.88051 5.11783 5.58051C5.71783 4.98051 6.31783 4.48051 6.81783 3.88051C7.21783 3.38051 7.71783 2.98051 8.21783 2.58051C8.41783 2.38051 8.71783 2.28051 9.01783 2.18051C10.1178 1.98051 11.3178 2.68051 11.6178 3.88051C11.9178 5.08051 11.1178 6.18051 10.0178 6.38051C9.51783 6.48051 9.01783 6.48051 8.41783 6.18051C8.81783 5.78051 9.21784 5.38051 9.61784 4.98051C9.81784 4.78051 10.0178 4.58051 10.1178 4.38051C10.2178 4.08051 10.0178 3.78051 9.81783 3.58051C9.51783 3.38051 9.21783 3.48051 9.01783 3.68051C8.11783 4.48051 7.31783 5.28051 6.51783 6.18051C6.11783 6.58051 5.61783 6.98051 5.01783 7.18051C3.71783 7.48051 2.61783 7.08051 1.81783 5.98051C1.81783 5.88051 1.71783 5.78051 1.71783 5.68051C1.01783 4.38051 1.41783 2.48051 2.91783 1.78051C3.71783 1.28051 4.51783 1.28051 5.41783 1.58051C5.81783 1.78051 6.21783 1.58051 6.41783 1.08051C6.51783 0.880506 6.31783 0.480506 6.01783 0.380506C5.21783 0.0805061 4.41783 -0.119494 3.61783 0.0805062C1.31783 0.480506 -0.182165 2.38051 0.0178347 4.68051C0.117835 5.38051 0.317835 5.98051 0.717835 6.58051C0.817835 6.68051 0.817835 6.78051 0.917835 6.88051C2.71783 9.18051 5.81783 8.88051 7.31783 7.38051C7.41783 7.18051 7.51783 7.28051 7.71783 7.38051C8.81783 7.98051 9.91783 8.08051 11.1178 7.48051C13.6178 6.18051 13.6178 2.88051 11.7178 1.48051Z" fill="url(#paint0_linear_18_6)"/>
<defs>
<linearGradient id="paint0_linear_18_6" x1="-0.0145653" y1="4.28051" x2="13.0502" y2="4.28051" gradientUnits="userSpaceOnUse">
<stop stop-color="#3DC5F3"/>
<stop offset="0.5205" stop-color="#3F5EAB"/>
<stop offset="0.9015" stop-color="#9756A2"/>
</linearGradient>
</defs>
</svg>
